<svg width="226pt" height="576pt" viewBox="0.00 0.00 225.54 576.00" xmlns="http://www.w3.org/2000/svg" xmlns:xlink="http://www.w3.org/1999/xlink">
<g id="graph0" class="graph" transform="scale(1 1) rotate(0) translate(4 572)">
<title>PR_Workflow</title>
<polygon fill="white" stroke="none" points="-4,4 -4,-572 221.54,-572 221.54,4 -4,4"/>
<!-- A -->
<g id="node1" class="node">
<title>A</title>
<path fill="none" stroke="black" d="M137.45,-568C137.45,-568 80.09,-568 80.09,-568 74.09,-568 68.09,-562 68.09,-556 68.09,-556 68.09,-538.4 68.09,-538.4 68.09,-532.4 74.09,-526.4 80.09,-526.4 80.09,-526.4 137.45,-526.4 137.45,-526.4 143.45,-526.4 149.45,-532.4 149.45,-538.4 149.45,-538.4 149.45,-556 149.45,-556 149.45,-562 143.45,-568 137.45,-568"/>
<text text-anchor="middle" x="108.77" y="-551.4" font-family="Helvetica,sans-Serif" font-size="14.00">Fork Repo</text>
<text text-anchor="middle" x="108.77" y="-534.6" font-family="Helvetica,sans-Serif" font-size="14.00">(GitHub)</text>
</g>
<!-- B -->
<g id="node2" class="node">
<title>B</title>
<path fill="none" stroke="black" d="M139,-490.4C139,-490.4 78.53,-490.4 78.53,-490.4 72.53,-490.4 66.53,-484.4 66.53,-478.4 66.53,-478.4 66.53,-460.8 66.53,-460.8 66.53,-454.8 72.53,-448.8 78.53,-448.8 78.53,-448.8 139,-448.8 139,-448.8 145,-448.8 151,-454.8 151,-460.8 151,-460.8 151,-478.4 151,-478.4 151,-484.4 145,-490.4 139,-490.4"/>
<text text-anchor="middle" x="108.77" y="-473.8" font-family="Helvetica,sans-Serif" font-size="14.00">Clone Fork</text>
<text text-anchor="middle" x="108.77" y="-457" font-family="Helvetica,sans-Serif" font-size="14.00">(Local)</text>
</g>
<!-- A&#45;&gt;B -->
<g id="edge1" class="edge">
<title>A-&gt;B</title>
<path fill="none" stroke="black" d="M108.77,-525.94C108.77,-518.59 108.77,-510.11 108.77,-502.03"/>
<polygon fill="black" stroke="black" points="112.27,-502.17 108.77,-492.17 105.27,-502.17 112.27,-502.17"/>
</g>
<!-- C -->
<g id="node3" class="node">
<title>C</title>
<path fill="none" stroke="black" d="M143.29,-412.8C143.29,-412.8 74.24,-412.8 74.24,-412.8 68.24,-412.8 62.24,-406.8 62.24,-400.8 62.24,-400.8 62.24,-383.2 62.24,-383.2 62.24,-377.2 68.24,-371.2 74.24,-371.2 74.24,-371.2 143.29,-371.2 143.29,-371.2 149.29,-371.2 155.29,-377.2 155.29,-383.2 155.29,-383.2 155.29,-400.8 155.29,-400.8 155.29,-406.8 149.29,-412.8 143.29,-412.8"/>
<text text-anchor="middle" x="108.77" y="-396.2" font-family="Helvetica,sans-Serif" font-size="14.00">Buat Branch</text>
<text text-anchor="middle" x="108.77" y="-379.4" font-family="Helvetica,sans-Serif" font-size="14.00">&amp; Edit File</text>
</g>
<!-- B&#45;&gt;C -->
<g id="edge2" class="edge">
<title>B-&gt;C</title>
<path fill="none" stroke="black" d="M108.77,-448.34C108.77,-440.99 108.77,-432.51 108.77,-424.43"/>
<polygon fill="black" stroke="black" points="112.27,-424.57 108.77,-414.57 105.27,-424.57 112.27,-424.57"/>
</g>
<!-- D -->
<g id="node4" class="node">
<title>D</title>
<path fill="none" stroke="black" d="M165.08,-335.2C165.08,-335.2 52.46,-335.2 52.46,-335.2 46.46,-335.2 40.46,-329.2 40.46,-323.2 40.46,-323.2 40.46,-311.2 40.46,-311.2 40.46,-305.2 46.46,-299.2 52.46,-299.2 52.46,-299.2 165.08,-299.2 165.08,-299.2 171.08,-299.2 177.08,-305.2 177.08,-311.2 177.08,-311.2 177.08,-323.2 177.08,-323.2 177.08,-329.2 171.08,-335.2 165.08,-335.2"/>
<text text-anchor="middle" x="108.77" y="-313" font-family="Helvetica,sans-Serif" font-size="14.00">Commit Perubahan</text>
</g>
<!-- C&#45;&gt;D -->
<g id="edge3" class="edge">
<title>C-&gt;D</title>
<path fill="none" stroke="black" d="M108.77,-370.72C108.77,-363.35 108.77,-354.86 108.77,-346.9"/>
<polygon fill="black" stroke="black" points="112.27,-346.93 108.77,-336.93 105.27,-346.93 112.27,-346.93"/>
</g>
<!-- E -->
<g id="node5" class="node">
<title>E</title>
<path fill="none" stroke="black" d="M146.01,-263.2C146.01,-263.2 71.53,-263.2 71.53,-263.2 65.53,-263.2 59.53,-257.2 59.53,-251.2 59.53,-251.2 59.53,-233.6 59.53,-233.6 59.53,-227.6 65.53,-221.6 71.53,-221.6 71.53,-221.6 146.01,-221.6 146.01,-221.6 152.01,-221.6 158.01,-227.6 158.01,-233.6 158.01,-233.6 158.01,-251.2 158.01,-251.2 158.01,-257.2 152.01,-263.2 146.01,-263.2"/>
<text text-anchor="middle" x="108.77" y="-246.6" font-family="Helvetica,sans-Serif" font-size="14.00">Push ke Fork</text>
<text text-anchor="middle" x="108.77" y="-229.8" font-family="Helvetica,sans-Serif" font-size="14.00">(GitHub)</text>
</g>
<!-- D&#45;&gt;E -->
<g id="edge4" class="edge">
<title>D-&gt;E</title>
<path fill="none" stroke="black" d="M108.77,-298.95C108.77,-291.75 108.77,-283.15 108.77,-274.89"/>
<polygon fill="black" stroke="black" points="112.27,-275.14 108.77,-265.14 105.27,-275.14 112.27,-275.14"/>
</g>
<!-- F -->
<g id="node6" class="node">
<title>F</title>
<path fill="none" stroke="black" d="M160.8,-185.6C160.8,-185.6 56.73,-185.6 56.73,-185.6 50.73,-185.6 44.73,-179.6 44.73,-173.6 44.73,-173.6 44.73,-156 44.73,-156 44.73,-150 50.73,-144 56.73,-144 56.73,-144 160.8,-144 160.8,-144 166.8,-144 172.8,-150 172.8,-156 172.8,-156 172.8,-173.6 172.8,-173.6 172.8,-179.6 166.8,-185.6 160.8,-185.6"/>
<text text-anchor="middle" x="108.77" y="-169" font-family="Helvetica,sans-Serif" font-size="14.00">Buat Pull Request</text>
<text text-anchor="middle" x="108.77" y="-152.2" font-family="Helvetica,sans-Serif" font-size="14.00">(GitHub)</text>
</g>
<!-- E&#45;&gt;F -->
<g id="edge5" class="edge">
<title>E-&gt;F</title>
<path fill="none" stroke="black" d="M108.77,-221.14C108.77,-213.79 108.77,-205.31 108.77,-197.23"/>
<polygon fill="black" stroke="black" points="112.27,-197.37 108.77,-187.37 105.27,-197.37 112.27,-197.37"/>
</g>
<!-- G -->
<g id="node7" class="node">
<title>G</title>
<path fill="none" stroke="black" d="M205.54,-108C205.54,-108 12,-108 12,-108 6,-108 0,-102 0,-96 0,-96 0,-84 0,-84 0,-78 6,-72 12,-72 12,-72 205.54,-72 205.54,-72 211.54,-72 217.54,-78 217.54,-84 217.54,-84 217.54,-96 217.54,-96 217.54,-102 211.54,-108 205.54,-108"/>
<text text-anchor="middle" x="108.77" y="-85.8" font-family="Helvetica,sans-Serif" font-size="14.00">Review oleh Owner/Collaborator</text>
</g>
<!-- F&#45;&gt;G -->
<g id="edge6" class="edge">
<title>F-&gt;G</title>
<path fill="none" stroke="black" d="M108.77,-143.52C108.77,-136.15 108.77,-127.66 108.77,-119.7"/>
<polygon fill="black" stroke="black" points="112.27,-119.73 108.77,-109.73 105.27,-119.73 112.27,-119.73"/>
</g>
<!-- H -->
<g id="node8" class="node">
<title>H</title>
<path fill="none" stroke="black" d="M165.85,-36C165.85,-36 51.69,-36 51.69,-36 45.69,-36 39.69,-30 39.69,-24 39.69,-24 39.69,-12 39.69,-12 39.69,-6 45.69,0 51.69,0 51.69,0 165.85,0 165.85,0 171.85,0 177.85,-6 177.85,-12 177.85,-12 177.85,-24 177.85,-24 177.85,-30 171.85,-36 165.85,-36"/>
<text text-anchor="middle" x="108.77" y="-13.8" font-family="Helvetica,sans-Serif" font-size="14.00">Merge ke Repo Asli</text>
</g>
<!-- G&#45;&gt;H -->
<g id="edge7" class="edge">
<title>G-&gt;H</title>
<path fill="none" stroke="black" d="M108.77,-71.7C108.77,-64.41 108.77,-55.73 108.77,-47.54"/>
<polygon fill="black" stroke="black" points="112.27,-47.62 108.77,-37.62 105.27,-47.62 112.27,-47.62"/>
</g>
</g>
</svg>